<?xml version="1.0" encoding="UTF-8"?>
<svg id="Layer_2" data-name="Layer 2" xmlns="http://www.w3.org/2000/svg" viewBox="0 0 403.1 381.61">
  <defs>
    <style>
      .cls-1 {
        fill: #ffeed9;
        stroke-width: 0px;
      }
    </style>
  </defs>
  <g id="Lager_1" data-name="Lager 1">
    <path class="cls-1" d="M89.22,22.98c15.87-.55,33.45,5.2,44.47,17.03,5.11,5.49,8.76,13.43,8.88,20.98.07,4.16-1.13,8.44-3.85,11.59-3,3.48-7.69,5.3-12.28,5.22-4.59-.08-9.06-1.96-12.64-4.85-2.66-2.15-4.91-4.85-7.91-6.49-4.99-2.71-11.83-1.77-16.3,1.62-3.19,2.42-4.01,5.96-3.84,9.77.73,15.64,12.77,25.83,21.3,37.48,8.33,11.37,14.24,24.35,16.02,38.41,4.56,36.08-23.5,72.41-57.96,74.62-25.16,1.62-48.24-16.28-55.29-43.14-3.5-13.35-3.66-26.65,2.97-39.21,9.07-17.17,28.35-19.93,42.03-6.14,4.14,4.18,5.97,9.27,4.53,15.12-1.31,5.34-3.22,10.54-4.32,15.91-1.1,5.37-1.04,11.22,4.85,13.66,5.43,2.25,9.7-1.36,12.81-5.61,5.51-7.52,5.53-16.08,4.09-24.82-2.72-16.41-11.17-29.85-21.67-42.3-11.52-13.66-19.9-29.77-15.16-47.98,4.54-17.45,15.89-32.11,33.31-38.02,5.15-1.75,10.53-2.68,15.95-2.86Z"/>
    <path class="cls-1" d="M321.01,193.91c-8.09.01-16.26-.27-24.17-1.36-7.13-.98-15.16-2.78-20.11-8.47-3.72-4.27-3.32-9.38-1.77-14.52,1.2-3.99,2.94-7.67,4.46-11.5,1.1-2.79,2.2-5.58,3.29-8.37,2.11-5.35,4.17-10.68,5.99-16.14,3.63-10.92,6.52-22.1,8.18-33.5,3-20.57,3.75-41.01-.85-61.48-1.74-7.76-3.48-16.4,4.35-21.78,8.06-5.54,16.57-2.8,24.38,1.76,10.92,6.36,19.34,16.33,18.57,29.6-.35,5.94-2.19,11.7-4.32,17.25-8.99,23.4-21.65,44.57-25,69.86-1.35,10.24.57,13.01,10.75,14.65,9.02,1.45,18.37,2.25,27.5,1.92,6.28-.23,12.54-.96,18.82-1.22,5.62-.24,12.29-.82,17.16,2.57,2.14,1.5,3.76,3.73,4.51,6.24,1.04,3.51.35,7.38-1.29,10.66-4.5,9.01-14.44,14.72-23.6,17.92-.11.04-.21.07-.32.11-11.86,4.11-24.85,5.43-37.33,5.68-3.03.06-6.1.11-9.18.11Z"/>
    <path class="cls-1" d="M133.04,186.78c1.09-7.03,2.27-15.8,3.84-24.5,2.99-16.61.79-32.35-7.07-47.34-2.66-5.07-5.12-10.25-5.15-16.25-.04-6.56,2.52-11.08,9.14-12.79,6.9-1.78,12.6.48,15.62,6.83,2.24,4.73,3.71,9.81,5.69,14.67.9,2.21,2.15,4.82,4.73,4.88,2.79.06,3.39-2.91,4.34-5.03,3.54-7.92,4.28-16.62,6.9-24.79,2.51-7.83,6.61-14.26,14.65-17.51,8.15-3.29,14.9.14,16.66,8.72,1.5,7.33-1.31,13.68-4.95,19.67-3.73,6.12-8.05,11.89-11.72,18.04-4.4,7.38-6.78,15.27-4.52,24.03,1.93,7.48,5.45,10.39,13.1,10.59,15.38.4,30.27,3.3,44.35,9.53,6.8,3.01,13.89,6.48,14.3,15.38.29,6.39-7.85,14.78-16.29,17.36-8.68,2.66-17.17,1.43-25.08-2.63-5.51-2.83-10.65-6.39-15.83-9.82-3.23-2.14-6.57-3.94-10.37-4.73-3.48-.72-7.4-.57-10.32,1.68-6.43,4.97-3.91,16.16-3.17,23,1.14,10.52-.77,25.87-13.68,28.15-9.15,1.61-18.51-4.28-22.41-14.21-2.68-6.82-3.05-13.97-2.75-22.96Z"/>
    <path class="cls-1" d="M286.19,96.61c-.1,5.68-.63,11.25-1.5,16.5-1.91,11.5-6.76,21.86-16.84,28.22-9.42,5.94-21.26,8.1-32.17,5.91-15.17-3.05-23.25-12.31-25.93-29.43-2.92-18.7.88-37.29,5.4-55.4.5-2.02,1.05-4.02,1.72-5.99,1.73-5.11,4.35-10.08,8.5-13.53,6.04-5.03,14.67-6.39,22.31-6.33,7.06.06,14.13,1.83,19.79,6.19,2.35,1.81,4.39,3.98,6.12,6.38,9.46,13.06,12.9,30.74,12.6,47.48ZM260.41,88.41c.35-9-5.67-15.36-14.8-15.65-7.49-.23-12.34,5.55-12.58,15.02-.22,8.6,5.56,15.32,13.35,15.53,7.76.21,13.69-6.09,14.03-14.9Z"/>
    <path class="cls-1" d="M275.69,201.01c1.06.28,2.11.56,3.17.81,7.69,1.88,15.57,2.88,23.48,3.21,4.27.17,8.93.29,12.19,3.05,2.35,1.99,3.54,5.07,3.89,8.13.31,2.73,0,5.58-1.24,8.03-2.58,5.05-8.64,7.41-14.31,7.58-9.29.28-16.58-2.67-25.29-5.15-3.97-1.13-8.53-1.36-11.93.98-1.62,1.12-2.85,2.74-3.73,4.5-.68,1.34-1.18,2.82-1.1,4.32.36,6.75,8.01,8.62,13.49,9.27,3.05.36,6.11.4,9.17.45,4.83.07,10.23-2.27,14.94-.83,3.82,1.18,6.28,4.86,7.89,8.52,1.4,3.16,2.42,6.71,1.54,10.06-1.12,4.23-4.89,6.39-8.88,7.34-11.55,2.73-23.01-2.45-34.39-3.7-2.75-.3-5.78-.31-7.95,1.4-2.1,1.66-2.82,4.51-3.03,7.18-.65,8.51-1.95,16.94-2.91,25.41-.78,6.83-1.99,12.93-8.79,16.41-6.24,3.19-16.32,2.01-19.55-4.97-2.82-6.1.1-13.51,1.63-19.56,2.46-9.77,5.45-19.4,7.7-29.23,1.43-6.23,2.57-12.53,3.09-18.91.51-6.3,1.32-12.66,1.43-18.99.16-8.91.67-18.53,8.42-24.48,4.7-3.61,11.02-4.48,16.92-3.89,4.81.48,9.48,1.83,14.16,3.08Z"/>
    <path class="cls-1" d="M99.72,296.07c-9.2,1.69-18.54,2.45-27.89,2.51-9.06.06-18.75-.05-27.67-1.77-6.13-1.19-12.31-4.01-15.72-9.25-2.97-4.55-3.46-10.32-2.82-15.72.47-3.97,1.63-8.11,4.58-10.8,2.18-1.99,5.1-2.96,7.97-3.68,7-1.77,14.24-2.39,21.45-2.84,13.42-.84,27.23-1.14,40.81-1.55,13.33-.4,27.21-2.51,40.49-1.56,2.95.21,6,.72,8.45,2.4,3.23,2.22,4.93,6.31,4.67,10.23-.7,10.45-12.85,16.73-20.97,20.91-10.59,5.46-21.82,9.02-33.35,11.13Z"/>
    <path class="cls-1" d="M172.7,299.75c.33-3.19,1.24-6.35,2.15-9.44,2.98-10.12,6.83-20.04,9.27-30.3,2.58-10.83,4.95-21.73,6.38-32.78.68-5.23,1.14-10.49,2.17-15.66.93-4.65,2.04-10.46,6.12-13.46,5.07-3.73,16.5-1.96,20.04,3.39,1.85,2.79,1.59,6.43,1.27,9.76-1.7,17.38-3.11,34.8-5.64,52.05-1.51,10.31-1.99,20.91-5.64,30.77-3.6,9.73-11.06,18.81-21.21,20.95-2.8.59-5.83.61-8.43-.61-4.05-1.9-6.26-6.51-6.57-10.97-.08-1.24-.05-2.48.08-3.71Z"/>
    <g>
      <path class="cls-1" d="M54.83,342.74l5.02-16.44,6.99,2.14-4.83,15.79c-1.55,5.08-.53,7.55,3.29,8.72,3.82,1.17,6.05-.31,7.61-5.42l4.81-15.75,6.99,2.14-5.01,16.4c-2.52,8.26-8.08,11.62-16.37,9.08-8.57-2.62-11.09-8.2-8.51-16.66Z"/>
      <path class="cls-1" d="M86.67,345.54l6.64,1.63-.71,2.91c2.25-2.05,4.66-2.76,7.3-2.11,4.08,1,5.96,4.24,4.8,8.95l-2.94,11.95-6.81-1.67,2.42-9.86c.68-2.78.06-3.98-1.72-4.41-1.98-.49-3.82.93-4.53,3.83l-2.2,8.96-6.81-1.67,4.55-18.49Z"/>
      <path class="cls-1" d="M104.31,373.12c.39-1.98,2.15-3.23,4.86-3.55-.79-.84-1.08-1.76-.91-2.67.3-1.53,1.56-2.44,3.71-2.58-2.32-1.4-3.57-4.09-3.01-6.95.8-4.05,5.08-6.21,10.2-5.21,1.5.29,2.78.85,3.89,1.58l6.26,1.23-.74,4.66-.44.26-4.11-1.37-.08.2,2.35,1.28c.13.67.04,1.34-.12,1.95-.97,2.94-4.08,4.65-8.44,4.14-2.63-.26-3.36-.1-3.48.52-.11.58.72.96,3.68,1.97,5.8,2,7.87,4.47,7.15,8.14-.82,4.17-4.89,5.74-11.52,4.43-6.71-1.32-10-4.2-9.25-8.04ZM119.04,375.76c.19-.99-.72-1.86-3.36-2.72-1.06-.34-1.63-.54-2.15-.77-1.8.12-2.81.65-3,1.6-.25,1.28,1.1,2.36,3.97,2.93s4.28.24,4.54-1.04ZM120.8,359.7c.31-1.57-.7-2.84-2.53-3.2-1.83-.36-3.25.43-3.56,2.01-.31,1.57.65,2.88,2.52,3.24,1.83.36,3.26-.48,3.56-2.05Z"/>
      <path class="cls-1" d="M149.62,373.48l-.56,3.79c-1.11.22-2.4.29-3.83.08-2.73-.4-3.83-1.67-4.04-3.19-2.03,1.53-4.25,2.06-6.9,1.67-3.62-.53-5.32-2.7-4.91-5.45.51-3.46,3.65-5.25,12.37-5.25l.13-.92c.26-1.75-.43-2.66-1.9-2.88-1.64-.24-3.19.38-4.77,1.81h-.38s-3.48-3.25-3.48-3.25c2.35-2.85,6.24-4.45,10.57-3.81,5.25.77,7.65,3.76,6.92,8.72l-1.08,7.33c-.12.83.05,1.11.56,1.19.25.04.52,0,.96-.12l.35.26ZM137.5,372.38c1.09.16,2.17-.15,3.31-.92l.51-3.5c-3.81.21-5.21.94-5.43,2.44-.16,1.08.42,1.81,1.6,1.98Z"/>
      <path class="cls-1" d="M165.37,378.78l2.33-30.79,6.99.53-2.33,30.79-6.99-.53Z"/>
      <path class="cls-1" d="M184.56,371.46v.34c-.07,2.44,1.5,4.04,3.84,4.1,1.61.04,2.83-.86,3.67-2.14l.43-.12,5.56,2c-1.79,3.41-5.15,5.3-9.95,5.18-6.71-.17-10.76-4.66-10.61-10.55.15-5.98,4.64-10.25,11.01-10.09,6.2.16,10.47,4.4,10.31,10.76,0,.29-.01.46-.07.88l-14.19-.36ZM184.68,368.35l7.26.18c-.07-2.28-1.39-3.62-3.43-3.67-1.95-.05-3.47,1.18-3.83,3.48Z"/>
      <path class="cls-1" d="M202.48,370.74c-.33-6.31,3.15-10.46,7.82-10.71,2.55-.14,5.03,1.04,6.69,3.44-.17-1.68-.33-3.86-.45-6.09l-.46-8.71,7-.37,1.63,30.84-6.79.36-.16-2.94c-1.32,2.47-3.88,3.96-6.63,4.11-4.79.25-8.31-3.48-8.65-9.92ZM217.37,370.03c-.14-2.73-1.94-4.54-4.32-4.41-2.38.13-3.9,1.98-3.74,4.84.15,2.82,1.77,4.46,4.1,4.34,2.46-.13,4.1-2.03,3.96-4.77Z"/>
      <path class="cls-1" d="M236.12,369.21l.05.33c.36,2.42,2.18,3.72,4.49,3.38,1.6-.24,2.64-1.33,3.25-2.73l.4-.19,5.82,1.02c-1.18,3.66-4.17,6.11-8.92,6.8-6.64.98-11.4-2.75-12.25-8.59-.87-5.92,2.82-10.89,9.13-11.82,6.14-.9,11.07,2.55,11.99,8.84.04.29.07.46.09.88l-14.04,2.06ZM235.71,366.12l7.19-1.06c-.46-2.23-1.99-3.33-4.01-3.03-1.93.28-3.22,1.75-3.18,4.09Z"/>
      <path class="cls-1" d="M257.15,374.27l-4.59-18.48,6.43-1.6.77,3.11c.86-3.08,2.62-4.77,4.77-5.31,2.31-.57,4.25.2,5.85,3.1l-4.8,4.32-.4-.03c-.54-.78-1.08-.99-1.86-.8-1.4.35-2.26,2.34-1.43,5.69l2.06,8.3-6.81,1.69Z"/>
      <path class="cls-1" d="M290.69,364.33l-7.6-17.46,6.08-2.65,1.28,2.94c.33-3.18,1.79-5.15,3.82-6.03,2.18-.95,4.23-.51,6.29,2.09l-4.01,5.05-.4.04c-.66-.68-1.23-.8-1.97-.48-1.32.58-1.84,2.69-.46,5.85l3.41,7.84-6.43,2.8Z"/>
      <path class="cls-1" d="M300.64,327.69c1.53-.92,3.51-.44,4.42,1.07.96,1.59.47,3.5-1.09,4.44-1.6.97-3.52.5-4.48-1.09-.91-1.51-.42-3.49,1.15-4.43ZM304.8,347.76c-3.02-5.01-1.33-11.25,4.13-14.54,5.5-3.31,11.77-1.88,14.79,3.13,3.02,5.01,1.33,11.25-4.13,14.54-5.42,3.27-11.77,1.88-14.79-3.13ZM307.95,323.28c1.53-.92,3.51-.44,4.42,1.07.96,1.59.47,3.5-1.09,4.45-1.56.94-3.48.48-4.44-1.11-.91-1.52-.45-3.47,1.11-4.41ZM317.87,339.88c-1.35-2.24-3.82-2.96-5.93-1.69-2.11,1.27-2.59,3.77-1.24,6.01,1.35,2.24,3.89,2.92,5.89,1.71,2.04-1.23,2.62-3.8,1.27-6.03Z"/>
      <path class="cls-1" d="M333.95,340.45l-12.11-14.69,5.12-4.22,2.04,2.47c-.56-3.15.31-5.44,2.01-6.84,1.84-1.51,3.92-1.65,6.62.28l-2.46,5.96-.38.15c-.83-.47-1.4-.43-2.02.08-1.11.92-1.03,3.09,1.17,5.75l5.44,6.6-5.41,4.46Z"/>
      <path class="cls-1" d="M348.55,316.01l.25.23c1.8,1.65,4.04,1.51,5.62-.22,1.09-1.19,1.21-2.7.79-4.17l.19-.4,5.15-2.89c1.4,3.58.62,7.37-2.62,10.91-4.53,4.96-10.58,5.07-14.93,1.09-4.41-4.04-4.69-10.22-.39-14.93,4.19-4.58,10.19-5.02,14.88-.73.22.2.34.31.62.63l-9.58,10.47ZM346.27,313.87l4.91-5.36c-1.76-1.44-3.65-1.32-5.02.19-1.32,1.44-1.39,3.39.12,5.18Z"/>
      <path class="cls-1" d="M367.94,306.21l-25-18.12,4.11-5.68,25,18.12-4.11,5.68Z"/>
      <path class="cls-1" d="M371.69,294.71l-.16-4.5.21-.27c1.79-.12,3.3-.85,4.04-2.09.7-1.17.65-2.24-.11-2.69-.69-.41-1.6-.11-3.96,1.79-3.56,2.93-5.89,3.22-8.31,1.77-2.97-1.77-3.52-5.61-1.04-9.77,1.94-3.25,4.93-4.98,7.75-4.68l.15,4.35-.23.31c-1.43-.06-2.69.57-3.41,1.78-.63,1.06-.51,1.92.18,2.33.65.39,1.27.26,3.95-1.85,3.57-2.77,5.85-3.14,8.31-1.68,3.08,1.83,3.52,5.86.93,10.2-2,3.36-4.9,5.09-8.28,5.01Z"/>
      <path class="cls-1" d="M381.11,267.93l.31.14c2.23,1.01,4.31.18,5.28-1.95.67-1.47.31-2.94-.54-4.21l.06-.44,4-4.35c2.45,2.97,2.88,6.81.9,11.18-2.77,6.12-8.48,8.1-13.85,5.67-5.45-2.47-7.63-8.26-5-14.07,2.56-5.65,8.13-7.94,13.92-5.31.27.12.42.19.79.4l-5.86,12.93ZM378.29,266.61l3-6.62c-2.12-.82-3.88-.12-4.72,1.74-.81,1.78-.27,3.66,1.72,4.88Z"/>
      <path class="cls-1" d="M378.72,246.89l2.12-6.5,2.84.93c-1.88-2.4-2.41-4.85-1.56-7.44,1.31-4,4.67-5.63,9.28-4.13l11.7,3.81-2.17,6.67-9.65-3.15c-2.72-.89-3.96-.35-4.53,1.38-.63,1.94.64,3.88,3.49,4.8l8.77,2.86-2.18,6.67-18.1-5.9Z"/>
    </g>
    <g>
      <path class="cls-1" d="M20.63,68.51l-2.75-3.72.2-.54c1.93-.99,2.87-2.29,2.94-4,.07-1.59-.9-2.7-2.19-2.75-1.36-.06-2.2.61-4.14,4.22-2.14,4.03-4.37,5.44-7.97,5.28-3.95-.17-6.89-3.47-6.7-7.93.14-3.32,1.87-5.88,4.73-7.41l2.89,3.7-.16.54c-1.43.76-2.32,1.86-2.39,3.35-.06,1.43.74,2.26,1.86,2.31,1.08.05,1.66-.39,3.75-4.15,2.32-4.18,4.58-5.52,7.8-5.38,4.51.19,7.79,3.69,7.59,8.39-.15,3.54-1.95,6.33-5.46,8.08Z"/>
      <path class="cls-1" d="M29.51,41.77l-6.81,1.36.93,1.81,4.14,1.53-1.75,4.73L1.96,42.31l1.75-4.73,6.2,2.29c3.28,1.21,6.13,2.4,8.22,3.3-.72-1.08-1.33-2.05-1.87-3l-1.88-3.1,2.1-5.67,3.93,7.34,11.08-2.32-1.98,5.36Z"/>
      <path class="cls-1" d="M16.95,20.17c-1.62-1.39-1.87-3.58-.7-4.94,1.17-1.37,3.37-1.45,4.99-.06,1.62,1.39,1.87,3.57.7,4.94s-3.37,1.45-4.99.06ZM17.97,18.99c.85.73,2.02.77,2.67,0,.68-.79.46-1.94-.39-2.67-.85-.73-2.02-.77-2.69.02-.66.77-.44,1.91.41,2.64ZM38.32,24.3l2.42,2.07c-.26.78-.7,1.62-1.37,2.4-1.29,1.51-2.58,1.61-3.71,1.04.31,1.95-.16,3.57-1.41,5.03-1.71,1.99-3.84,2.06-5.59.55-2.2-1.89-2.28-4.65.96-10.04l-.58-.5c-1.12-.96-2-.95-2.69-.14-.78.9-.92,2.15-.52,3.78l-.15.23-3.53.67c-1.1-2.75-.76-5.89,1.29-8.27,2.49-2.9,5.44-3.01,8.61-.3l4.68,4.01c.53.46.79.48,1.03.2.12-.14.19-.32.28-.65l.31-.09ZM33.05,31.3c.52-.6.7-1.41.59-2.47l-2.23-1.91c-1.27,2.45-1.28,3.65-.33,4.47.69.59,1.41.56,1.96-.08Z"/>
      <path class="cls-1" d="M33.35,12.55l4.25-2.46,1.25,2.15c0-2.43.83-4.12,2.52-5.1,2.62-1.52,5.35-.51,7.37,2.97l5.12,8.84-4.36,2.53-4.23-7.3c-1.19-2.06-2.17-2.46-3.3-1.81-1.27.73-1.41,2.56-.17,4.71l3.84,6.63-4.36,2.53-7.92-13.69Z"/>
      <path class="cls-1" d="M58.13,10.24l.09.26c.67,1.92,2.19,2.76,3.77,2.21,1.1-.38,1.65-1.39,1.84-2.6l.25-.2,4.31.13c-.21,3.11-1.92,5.45-5.18,6.58-4.56,1.58-8.58-.87-10.19-5.5-1.63-4.7.14-9.17,4.47-10.67,4.21-1.46,8.31.74,10.04,5.74.08.23.13.36.21.7l-9.63,3.35ZM57.3,7.78l4.93-1.71c-.71-1.76-1.99-2.46-3.37-1.98-1.33.46-1.99,1.8-1.56,3.69Z"/>
    </g>
  </g>
</svg>