<svg xmlns="http://www.w3.org/2000/svg" viewBox="0 0 436.6 514.83"><defs><style>.cls-1{fill:#fff;}</style></defs><g id="Layer_2" data-name="Layer 2"><g id="Layer_1-2" data-name="Layer 1"><g id="Layer_2-2" data-name="Layer 2"><g id="Lager_1" data-name="Lager 1"><path class="cls-1" d="M287.5,267.72c.55-.55,1.46-1.1,1.28-1.83A2.8,2.8,0,0,0,287.5,267.72Z"/><path class="cls-1" d="M256.17,138.19c.36-3.48,4.58-8.25,0-11-1.65-1.28-4-1.28-6.05-1.28-3.85,1.1-6,5-7,8.25,4.4.91,8.43,2.93,12.46,4.58Z"/><path class="cls-1" d="M184.9,130.49c-2.2.73-4.58,1.1-5.87,3.3-.91,2.38-1.46,5.68.37,7.51l11.73-5.68v-.55C190.21,132.51,187.46,131,184.9,130.49Z"/><path class="cls-1" d="M271,146.25a43.83,43.83,0,0,1,11.91-8.06c-2.2-3.12-6.78-1.29-9.9-1.1-2.56-1.28-6-1.65-8.61,0-1.65,1.1-3.3,2.56-2.93,4.58Z"/><path class="cls-1" d="M220.62,66.92c.55-4,2.2-7.15,3.85-10.63-5.13.18-9.71,0-14.84.18.73,3.67,3.85,7,3.12,10.63a79.27,79.27,0,0,0-10.81-2.75c.55,3.85,0,8.61.91,12.46,2.93-1.28,5.86-2.75,8.8-2.93a6.84,6.84,0,0,1-.55,5,34.34,34.34,0,0,0-7.52,9.71A47.63,47.63,0,0,0,183.25,97c-10.45,1.29-20.16,5.68-27.48,13.74-5.68,6.6-6.23,16.86-1.84,24.37a14.82,14.82,0,0,0-7.69,12.46c9.16,3.3,18.32,7.15,24.73,16.12a75,75,0,0,0-10.26,9.9h-.36a6.87,6.87,0,0,0-.37-3.3c-9.71-.18-18.32,7.14-22.54,15.21l-.55-.19a31.08,31.08,0,0,0-5.67-17c-2.75.55-4.77,3.85-6.78,5.5a29.68,29.68,0,0,0-4.58-15.94c-1.65-1.83-2-5-5-5-6.78,4.77-7.51,13.93-7.33,22-2.75-1.1-5.13-4.4-8.61-3.12-1.28.74-1.28,2.39-1.47,3.67-.91,2.2,0,6-.91,7.88L90,180c-2.56-.73-5.86-2.93-7.88-.73-1.28,4.76.55,10.07,1.84,14.65h-1.1c-3.48,1.47-.92,6.05-1.29,9.16l-.18.37a6.71,6.71,0,0,1-1.28-1.1c-3.85-2.38-8.06-2.75-13-3.11-.92-.19-2.75-.19-2.56,1.28a28.06,28.06,0,0,0,7,12.46c2.2,2.93,5.31,5.31,8.06,7.69-.37.55-1.28.74-.92,1.47,2.57,8.24,11.18,14.47,18.51,18.14.36,2,1.65,4,.73,6.41-.37,0-.73-.37-1.28-.92-4.84-2.77-10.52-4.77-16-4.62-.55,10.08,6.41,19.42,15.57,23.45l-.91.74c-4.77.55-9.53,2.38-12.83,6.23-.37.91.18,1.28.37,2a38.54,38.54,0,0,0,30.59,4.76c6.6-1.46,12.28-5.86,19.61-5.31,11.54,2,20.88,9,32.06,11.18,4,.55,9.16.55,12.46-1.47-1.83-.73-3.12-3.11-5.31-2.56-7.88-.74-15.76-2.57-21.07-9.35-4.58-6.78-.55-15.57-2.39-23.45l.55-2.38c4.58,14.29,15.21,27.48,28.4,36.46a74.44,74.44,0,0,0,50,11.36c21.62-4.22,43.24-16.49,54.41-36.64,2.57-4.58,4-9.9,6.78-13.75,1.1,5.87-.73,11.18-1.46,16.68-3.48,11.17-15.21,16.3-24.92,20-1.28,1.1-4,2.2-4.58,3.84,12.46-.91,22.9-7.87,34.08-12.45,5.13-2.2,11-.92,16.49-1.84,4.94,1.29,8.24,5.87,12.45,8.25,7.15,3.48,16.86,3.48,24.56.91,1.64-.36,4-1.46,4.57-3.29-2-2.2-5.12-4.22-7.69-6-4-2.56-9.16-3.3-13.56-5.13,9.53-1.47,20.16.37,26.57-8.43,2.56-4.94,5.13-11.54,2.2-17.4-1.65,0-3.48.91-5.5,1.28-.73-.37,0-.92-.37-1.28,5.5-6.23,7-14.11,5.68-22.17-4.76-.37-8.06,3.85-11.9,5.5l-1.11-.74c9-4.58,16.86-11,24.74-17.22,2.2-3.66,7.33-7.14,6.41-12.09-5-2.2-11-.73-16.12,0-2.75,1.65-5.86,3.11-8.61,4.4a8.23,8.23,0,0,1,1.46-4c0-2,2.57-6.23-1.28-6.42,2.38-4.58,4.4-9.16,3.66-14.47.19-1.28-1.28-.73-2-1.1-5.68,1.65-10.26,5-14.84,8.79l-.18-.36c3.84-6.78,5.49-17,.73-24.19-3.66.37-6.41,3.85-9,6.23-2.75,3.3-3.48,7.88-4.76,11.73-1.28-1.28-2.75-3.67-4.58-4.4-3.67,2-4.58,6.6-6.6,9.71,0-1.28-1.1-2.38-1.28-3.66-1.28-2.2-2.57-5.5-5.31-5.87-3.12,2.94-5.87,5.13-7.15,9-1.28,2-1.1,4.77-2.38,6.6-3.85-6.05-9.71-13-16.67-14.29l-2.38,7.69-.19.19c-3.3-4.22-6.23-8.43-10.44-11.73V163.1c5.31-10.44,15.21-16.3,25.47-20.33,0-5.32-3.67-9.71-7.88-13.19,1.65-8.25,1.1-17.41-3.67-23.64-7.69-8.24-18.5-12.27-30-9.53-6.79-3.29-13.39-8.06-21.59-8.61a20.1,20.1,0,0,0-7.51-8.61l-1.65-5.31.36-.55c3.67.73,7,3.3,10.63,4,.18-5.13-.73-9.34-.55-14.47C227.4,63.8,224.1,66.37,220.62,66.92Zm66.88,200.8a2.8,2.8,0,0,1,1.28-1.83C289,266.62,288,267.17,287.5,267.72ZM208.16,100.81c-2.38,2.93-1.09,6.6-.73,9.71a6.68,6.68,0,0,0-1.65,6.78c-2.74-.73-6.59-.18-9.71.73-3.3-5.13-.73-11.91,2.2-16.49,1.65-1.83,3.67-5.13,6.78-5.31C206.15,97.7,206.88,99.16,208.16,100.81ZM184,108.69c.92-1.28.18-3.66,0-5,2-.91,5.5.37,5.86-2.93.92-1.1-.55-3.11.92-3.3,1.65.74,3.11.19,4.58,0,1.28-1.1,2.57-1.83,3.11-3.66a4.67,4.67,0,0,0,4.77-1.65c1.1,0,.73.92.55,1.47-3.3,2.74-7.7,4.76-9.35,9.16-2.93,4.76-3.29,11.36-1.65,16.85l-6,5.32c-2-.37-4.58,0-5.31-2-.55-.92-.74-1.65-1.47-2h-1.65c-.55-2.38,3.85-3.66,2-6.41-.19-1.28-3.48-2-1.47-3.85C179.4,108.69,183.43,112,184,108.69Zm-27,12.46c1.65-.73,4-1.47,4-3.85.55-1.83-2.93-3.85.18-4.58,2-.55,5.13.18,5.68-2.2,0-1.1-.73-2.93.73-3.11,1.29,1.83,3.12.91,4.59,0a6,6,0,0,0,2.19-5.32c1.29-.55,2.39-1.28,3.85-1.28-.73,2-2.75,4-3.85,6L173,112a12.29,12.29,0,0,0-6.78,9.89c-.37,3.3,0,7,1.65,9.71-.92,1.28-2.75,1.47-4,2.57a10.78,10.78,0,0,1-6-4.4c.19-2.2,3.3-3.48,1.65-6C159.25,121.88,156.68,123,157,121.15Zm17.4,7.69a8.19,8.19,0,0,1-2,2.38c-2.57-1.64-3.48-5.49-3.3-8.61.55-1.65.73-4,2.38-5.31l.37.18c0,3.85,1.31,7.7,2.59,11.36Zm-46.17,45.44a1.44,1.44,0,0,1,2-.18c4.76,11.36,4.58,27.11-2.38,37.55-1.28,1.84-2.75,1.29-4-.18-6.39-11.72-2.54-26.93,4.42-37.19Zm-8.42,47.63c-.55-.36-1.1-.36-1.29-.73,0-1.1.19-1.83.19-2.93-2.57-2.38-4.22-6-5.13-9.34,3.48,1.28,5.49,4.39,8.06,6.41,0,2.2,0,5.13-1.79,6.59Zm.55,5.32c-.92-.55-1.65-1.28-1.1-2.2.55-.37,1.1-.92,1.46-.92a4.44,4.44,0,0,1-.32,3.12Zm-9-4c-3.12-2.57-3.67-6.6-5.13-10.26l.37-.19c2.93.55,5.67,2.75,8.24,4.58.55,1.47,1.28,3.3,1.1,4.77-1.1-1.65-1.28-4.95-4-6,.06,1.94,1.49,5.24-.52,7.07Zm.73-59c.73-2.38,1.28-4.94,3.12-6.41a24.31,24.31,0,0,1,4.58,23.82c-.55,2.2-.37,4.58-1.29,6.41-5.8-6.44-9.5-15.24-6.35-23.85Zm-10.62,11.55c5.86,1.09,8.42,7,11.9,11,2,5.13,5.32,9.89,4.4,16.12a33.94,33.94,0,0,0,1.28,6.23c-11.66-6.64-19.17-20-17.52-33.38ZM85.41,182c12.46,2.57,18.32,15.76,24.92,24.92.62,1.5,1.18,3,1.65,4.58-7.88-5.13-18.69-7.88-22.72-17.22C87.43,190.4,84.13,186.56,85.41,182Zm-.55,13.93c3.85,1.28,5,5.68,7.7,7.88,5.68,4.58,12.46,9.71,12.82,17.4-2.38,0-3.29-2.93-5.49-2.93-6-3.66-13.38-9.53-15-17-.91,0-.73-1.46-1.1-2.2.16-1.17,0-2.63,1.07-3.18Zm-15.94,7.69.55-.73c10.45-.73,15.39,7.88,22.54,13.93a71,71,0,0,0,19.42,10.44,7.8,7.8,0,0,1,5.13,6c.18,3.67,1.46,6.42,2,9.53-4.58-9.71-13.55-20-24.36-22.35l-10.08-2.2a38.59,38.59,0,0,1-15.2-14.65Zm27.67,32.25c-5-.92-9.35-5.5-12.64-10.08-.55-1.1-.74-2.38.55-2.93,10.44-.92,20,3.12,26.2,11.54a73,73,0,0,1,3.84,7.33c-4.21-4-9.71-7.88-15.57-9.71a7.08,7.08,0,0,0-2.38,3.82ZM84.5,245.58c1.64-.55,4,.55,6,1.28,8.43,2.75,14.48,11,22.17,15.76-2.38.36-4.4-1.83-7-1.83l-.73.91,1.83,1.47c-2.75.91-4.76-1.47-7.33-1.47-7.8-1.13-13.3-9.55-14.94-16.15ZM125,270.47c-9,3.29-18.14,7.69-28.58,5.13a31.37,31.37,0,0,1-8.07-3.3v-.73c9.16-5.87,22.54-7.52,33.71-3.85C122,269.55,126.09,267.9,125,270.47Zm-2.2-4.77c-7.88-4.94-18-10.26-21.25-19.42-1.1-3.3-2.57-6.59-1.84-10.07,13.74,4.58,20.16,18.32,26.2,30-.75,1.14-2-.32-3.13-.51Zm4.4-2.38c-1.84-4.58-5.32-8.61-6-13.74,2.2,5.86,6.59,11.18,9.89,16.86a4.71,4.71,0,0,1-3.86-3.12Zm25.28,12.09c-11-1.28-18.14-12.46-20.52-22.17a59.33,59.33,0,0,1,.37-24.18c-.55-1.28-1.84-.55-2.57-.37-1.83,6.42-2.75,13.38-1.47,20l.74,4.58c-.55.37-.74,0-1.29-.36-3.66-8.61-6.59-19.06-4-28.77l3.67-6.59c5.86-5,13.37-10.08,19.24-15.39-2,10.44-2,20.7-.92,31.51-2.2-3.3-4.21-7.33-3.66-12.09l-.92-.37c-2.2,2.57-3.3,6.23-5.31,9.35-3.85,10.26-1.47,20.88,2.38,30.23,2.88,6.38,10,8.94,14.24,14.62Zm-6.78-10.81c-5.31-5.13-7.33-12.45-8.25-19.6a27,27,0,0,1,2.75-15.21c6.58,9.71,6.8,22.91,5.48,34.81Zm0-66.14-11.54,10.26h-.92c3.85-10.26,4.58-22.9,14.29-30.41a19.15,19.15,0,0,1,8.25-4.95l.73.74c-.75,9.34-3.87,18.32-10.83,24.36Zm192.74,72.37c2.2,1.29,5.13,1.65,6.78,3.67-9.53,3.66-21.8,1.83-29-6.05l-.18-.55c6.76-4,15.73-.18,22.33,2.93ZM309.11,265c-3.29-.37-6.59.92-9.34,0,1.65-1.83,4.76-2.38,7.15-3.3,6.78-3.3,13.74-6.41,21.25-7.51,2.56-.55,4.58-2.2,7-2.93C329.45,260.39,319,263.32,309.11,265Zm-3.47-6.41a37.32,37.32,0,0,1,6.22-8.25c-.73,3.66-3.48,6.2-6.22,8.22Zm9.52-7c.55-4.22,3.12-8.62,5.5-12.65,5.49-7.14,11.36-14.47,20.88-15.57l.19.73c-4,11.36-12.28,23.27-24,28.77-.19-.37-.37-1.28-1.29-1.47-.36-.17-.73,0-1.28.2Zm39.21-10.45c.73-.18,1.28.55,1.28,1.28,0,4.22-1.65,7.7-4,11-.73.18-1.83.73-1.47,1.46a25,25,0,0,1-15.75,3.85c.73-3.48,4.21-6.59,7.33-9.34,3.82-3.84,8-6,12.61-8.24Zm-9.53-14.84c2.75-2.56,5.68-5.49,9.16-6.78l.37,2c0,9-7.15,16.12-13.19,22.72l-1.47.18c-4,3.11-7.88,6.23-12.46,7.51,7.52-6.38,15-15.72,17.59-25.62Zm-7.51-7.51a46.41,46.41,0,0,1-12.09,2.57,3.36,3.36,0,0,1,2.19-4.22h0c7.14-6.23,16.3-7.51,24.91-9.71h.74c-2.2,6.06-9.35,10.09-15.76,11.37Zm-21.62-2.56c.73-4,2.38-7.52,4-11.18,7.7-8.79,18-13.38,28.58-15.94.74,6-4.39,11.36-8.61,15.94-7.11,5.87-15.54,8.25-24,11.19Zm2.38,7c-.73-.74-.73-2.38-.55-3.3a20.15,20.15,0,0,1,3.48-1.65c1.1,2.54-1.65,3.27-2.93,4.92Zm53.32-30v1.1c-4.22,5.31-7.88,10.26-13.93,13.19.55-1.65,0-3.3-2-3.11-2.75-.55-5.87,0-8.61,0,6-6.86,15-13.09,24.54-11.26Zm-20-20.15c.36,1.65-.55,3.11-.92,4.58-1.65,4-4.21,8.42-8.61,10.81a53.37,53.37,0,0,0-10.81,3.66v-.91A46.34,46.34,0,0,1,351.44,173Zm-20.16-9.9c1.47-2,3.12-4.58,5.32-5.86,1.46,2,1.1,5.31,1.28,7.88-.92,7.69-3.48,15.57-8.43,21.44-.7-8-3.82-16.94,1.86-23.54ZM319,173.73c.73-.37,1.83-2,2.93-.73l2.75,7c1.83,4.76,2.56,11.36-.55,16.31l-6.6,6.59C313.7,193.88,315.53,182.52,319,173.73Zm4.4,50.93c1.28.55,2.74,0,4-.18v1.28c-6.78,5-9.9,13-15.21,19.06C316.08,238.77,316.44,229.61,323.41,224.66Zm-11.18-.55c-.37.55-.37,1.65-1.1,1.65-.73-4.58-5.13-7.88-5.13-12.82,2.38-2.57,2.93-6.23,5.5-8.61C314.25,210.92,310.4,217.33,312.23,224.11ZM301,183.81c.74-4.4,2.2-8.8,5.87-11.55h.73c4,7.88,6.05,19.61,1.65,27.67-2,5.13-4.22,10.08-8.06,14.11-.92.55-.92-.74-.92-1.29C299.4,202.31,300.69,193.88,301,183.81Zm.19,34.44a16.56,16.56,0,0,1,3.84,7c2.57.55,2,3.85,2.75,5.87,1.47,10.07-.55,20.52-8.43,27.48-2.56,1.83-4.57,5.31-7.87,4.39-.37,0-.74.37-1.29.19,1.1-5.68,2.39-11.73,2-17.59A51,51,0,0,1,294.77,222,26.32,26.32,0,0,1,299.4,247c-1.28,1.64-.18,4.21-.73,6.22,1.29-.54,1.83-2.56,2.38-3.84,4-9,2.57-20.71-2.93-28.58-1.28-1.29-2.56-2.2-4.21-2.2l-1.65.91c-.18-4,0-8.06-.73-11.91,2.56,2.57,4,6,5.31,9.71a3.45,3.45,0,0,1,4.4.94Zm-18.32-44.89c9.34,4.77,13.92,15.21,13.92,25.1-.92,3.85.55,7.88-.18,11.55-2.75-5.13-7.7-10.08-11.18-14.84-3.07-6.6-5.82-14.48-2.52-21.81Zm-4.58,14.48c12.45,21.62,9.89,53.86-6.05,72.92-15.76,20.15-39.76,29.86-65.41,25.83-21.62-3.3-43.6-20.15-51.48-41.22-9.16-22.72-5.13-50.94,11-69.26a68.81,68.81,0,0,1,69.44-22c17.07,4.6,34.11,17.24,42.54,33.73Zm-60.83-42c-11.73,1.28-23.09,3.3-32.8,9.16-.73-1.1-1.46-2.56-3.11-2.93-2-.92-4.22,5-4.58.37,10.26-10.26,24-13,37.92-14.48a2.54,2.54,0,0,1,2,.74c-.37,2-2.93,2.74-4.58,3.84-.37-.36-.92.19-1.28.74v.18Zm2.38-7.69c15.94.73,30.78,4,43.42,12.64-1.28,2.56-2.2,5.5-4.4,7.14a5.1,5.1,0,0,1-2.19-1.46c.18-1.47,3.11-2.75,2-5.13a3.3,3.3,0,0,0-3.85-1.28,2.37,2.37,0,0,0-2,2.56,2.49,2.49,0,0,0,1.1,2c-10.44-4.77-22-8.43-34.45-8.8,1.29-2,3.85-2.56,5.68-3.66-1.6-1.41-5.64-.86-5.27-4Zm38.84-39c.18,1.65,2.38,3.12,3.85,1.65.91-.37,1.28,1.28,2,2,1.47.91,3.3,1.83,4.77.91L271,103c.91,2,1.65,4.58,4.58,5.13.91,1.83,1.28,4.76,3.84,5.31.37,1.83-.54,4,.19,5.87l2,2.56a7,7,0,0,0-1.46,7.88c.18.18,0,.55,0,.55h-5.68c0-6-1.47-12.83-7.33-15.57-7.33-.55-5.86-9.35-11.18-12.65l-1.28-2.93c1.32-.72,2.76-1.09,4,0Zm10.44,29.68c-4.58,2-4-3.84-6-5.68,0-1.83-.73-4.76.73-5.86,3.48.18,4.77,4,5.5,6.6.36,1.65.91,3.85-.19,5ZM232,92.38c2-.18,5.68-1.83,5.32,1.84,2.19,1.46,4.39,2.74,7.14,2.19,2.38,1.65.92,5.13,3.66,6.42l3.3.18c-1.28,2.93,1.29,4.58,3.48,5.68h.37c-1.1,2.75.37,5.5,1.47,7.88A94.9,94.9,0,0,1,247,118.4c-1.65-2.56-.74-6.41-1.47-9.16-1.28-7.7-9-13.74-15.21-17C230.7,91.1,231.62,92.2,232,92.38Zm-3,4.4c2-2.93,4.22.73,6.05,1.47,2.75,2.56,5.86,5.31,6.41,9.16.18,3.29,1.47,7.14.18,9.89-3.11-1.1-7.14-.55-10.44-.18-.55-2.57.73-5.87-1.47-8.25-1.09-.55-1.83-1.28-1.09-2.2a8.11,8.11,0,0,0,0-5.86C226.67,99.53,228.14,98.06,229,96.78Zm-1.65,34.08.55.91a65.68,65.68,0,0,1,11.73,1.84,48.3,48.3,0,0,1,2.2-5.68c.36-1.65-.92-3.48-2.39-4.22-2.38-1.28-5.68-2-8.24-.73-.18-1.1-1.47-2.38-.73-3.3,4,.92,9-.55,12.46,2,1.1.73,2.56,2.2,4,.91,2.74-2,7-2,10.26-.55,4,2.39,6,6.42,6.59,10.81,2.2-.36,6.41-1.83,7.7,1.29,4.94-1.1,11.54-2,14.84,3.29.55.74,1.28,1.47,1.28,2.2-9.89,3.3-18.69,11.73-23.82,20.89-.55.55-.73-.19-1.28-.55.73-3.48,4.4-6.6,5.31-10.08-22.53-15.2-55.88-20.7-81.71-8.43-5.13,3.12-10.81,7-14.66,11.36,1.47,2.94,3.85,5.13,5.32,8.07-.19.36-.74.18-1.1.18-6.6-7.33-13.74-15-23.64-16.31-.91-.73,0-2,.37-2.75a11.86,11.86,0,0,1,11.91-4.94,10.1,10.1,0,0,1,7.14-2l2.75.74c1.1-4.59,5.31-7,9.34-8.25,1.84,0,3.67-.37,5.5-.37a17.85,17.85,0,0,1,16.67-7.32c1.29.73.37,2.19,0,3.29-.91,1.1-2-.18-2.93-.18-3.3.73-7.51,1.47-8.43,5.31,0,2.2,0,5.13,2.2,6.05a87.76,87.76,0,0,1,13.74-2.57c.74-7.51-.73-14.47.74-22.16a6.7,6.7,0,0,1,.91-5.87,5.4,5.4,0,0,1,2.93,0,3.73,3.73,0,0,0-.18,3.67c.92.55,2,2,.92,3.11-1.65.37-2,2.2-2.2,3.48-.55,2.2.73,4,2.2,5.87a8.36,8.36,0,0,0-1.29,9l.55.19,7.88-.19a7.69,7.69,0,0,0-.91-9,10.35,10.35,0,0,0,2-5.87c-.36-2-1.46-3.48-3.3-5.13,1.84-1.46.55-4.76,2.2-6,2.38-1.84,2,1.83,2.93,3.11-2.19,4,4.58,8.06,0,12.09,1.73,3.81,2.83,8.57,1.73,12.79ZM224.47,86a9.64,9.64,0,0,1,.73,9.89,8.82,8.82,0,0,1-7.69,4.4,9.32,9.32,0,0,1-8.43-5.13c-.92-3.3-.92-7.51,1.83-9.89C214.39,81.39,221.36,81.76,224.47,86Z"/><path class="cls-1" d="M169.51,138.74c-1.84-.37-3.12,1.28-4.4,2-2.57-.55-5.68-.73-7.7.92a1.54,1.54,0,0,0,.56,1.83c3.84.55,6.59,3.3,9.89,5.13,1.28-2,3.85-2.75,5.13-4.58l-.73-1.28Z"/><path class="cls-1" d="M234.36,146.06c.74-.73,1.65-2,.92-3.11-.73-2.2-4.58-2.75-5.86-.73,0,1.1-.37,2,.36,2.75C231.62,145.33,233.08,147.53,234.36,146.06Z"/><path class="cls-1" d="M203.77,142a3.6,3.6,0,0,0-1.83,3.49,4,4,0,0,0,3.29,1.28c1.65-.55,4.58-.74,3.67-3.3C207.8,141.3,205.6,141.48,203.77,142Z"/><path class="cls-1" d="M250.3,148.81a8.08,8.08,0,0,0-6-4.76c-2,.73-4.77.92-6.41,1.83a41,41,0,0,1,5.68,4.22Z"/><path class="cls-1" d="M190.76,144.78c-1.65,2.38-2.93,4.77-4.58,7.33,2.56,0,4.58-1.28,6.59-2,3.12.55,3.85-3.49,5.5-5.5C195.71,144.6,193.32,145,190.76,144.78Z"/><path class="cls-1" d="M261.11,193.88a10.34,10.34,0,0,1-2.38,6.6,5.42,5.42,0,0,1-5.31,1.1c-2.38-.55-3.3-2.93-3.3-5.13.55-2.57.73-6,3.85-7.15a9.08,9.08,0,0,1-4.58-1.46c-1.83-.74-1.1-3.85-3.67-3.3l-3.84,3.85c-1.29.73-2.75.36-3.48,1.65,3.29,2.38,3.48,6.41,3.48,9.89a5.81,5.81,0,0,1-5,3.11,6.55,6.55,0,0,1-3.3-2.56c-1.28-1.83-.91-4.76-.36-6.6-4-.91-7.33-4-10.45-6.78-.18,7.52,5.68,12.83,7,20.34.74,1.65,0,4,.74,5.5a62.65,62.65,0,0,1,31.88-.92l.36-.55a91.13,91.13,0,0,1,8.43-24.37c-.18-.54-.73-.54-1.28-.54-2.57,2.74-6.42,3.11-9.9,3.48C260,191.32,260.75,192.6,261.11,193.88Z"/><path class="cls-1" d="M191.49,211.29c5.13,0,10.26,1.46,15.39,1.46,0-9.16,3.48-16.85,5.87-24.91a28.45,28.45,0,0,1-12.28,5.86c.55.55,1.1,1.28,1.47,1.65a10,10,0,0,1-.74,6.23,5.67,5.67,0,0,1-6,2.2,4.82,4.82,0,0,1-2.75-2.2,8.79,8.79,0,0,1,2.2-8.43c-1.84-1.28-3.48-2-5.13-3.85-1.29-.91-.74-2.74-2.57-3.3a20.67,20.67,0,0,1-7.51,7.88c.55,1.29,1.65,1.29,2.75,1.47a5.26,5.26,0,0,1,2.38,4.58,6.85,6.85,0,0,1-3.48,3.66,5.09,5.09,0,0,1-5.5-1.46c-1.46-2.93-1.1-6.41-1.1-9.53-2.93-1.28-6-2.56-8.24-5.13h-1.1c-.55,2.57,2,4.95,2,7.88,2.75,5.68,3.67,12.09,4.59,18.32l.55.37C178.67,212.75,184.71,210.74,191.49,211.29Z"/><path class="cls-1" d="M261.11,216.05c-9.52-2.75-21.62-2.75-30,2a2.1,2.1,0,0,0,.32,2.95,1.88,1.88,0,0,0,.23.16c8.06,3.3,17.77,1.65,26.56.92,2-.92,6.23.36,5.68-3.3C263.31,217.33,262,216.79,261.11,216.05Z"/><path class="cls-1" d="M206.33,219.53a1.72,1.72,0,0,0,.19-2.2c-6-2.56-13.2-2.38-20.34-2.74-4.21,1.46-9.16.18-12.64,3.48-.74,1.1,0,2,.55,3.11,6,2.75,13.37,2.57,20,2.2C198.27,222.46,203,222.46,206.33,219.53Z"/><path class="cls-1" d="M243.53,229.06c-3.85,1.28-7.15,4-11.55,4.58,1.1,2.57,1.83,5.5.55,8.43-.73,1.65-2.56,3.48-4.58,3.48-2.2,0-3.48-1.28-5.13-3.12-.91-3.48,1.28-6.59,2.93-9.34-.55-1.83-2.93-1.47-3.84-2.75-2-1.1-1.65-4-4.22-4.39-.73,2-1.46,3.84-3.3,5.13-1.28,1.28-3.48.91-4.58,2.56a9.07,9.07,0,0,1,4.95,5.13c.73,2.2.55,4.95-2,6a6.33,6.33,0,0,1-6.23-.74c-2.75-2.56-1.65-7.51-.74-10.44l-5.86-1.1c-2.2-.55-4-2.93-6.23-2.93,4.58,7.33,7,15.39,9.35,23.63,2.56-.36,4.76-2,7.69-2.38,7.88-1.46,17.41-2,24.55,2.38,1.65-7.69,2.93-15,7.88-21.25C243.71,231.26,245.36,229.61,243.53,229.06Z"/><path class="cls-1" d="M225.75,253.61a33,33,0,0,0-21.8,4.21,1.55,1.55,0,0,0-.33,2.17,1.6,1.6,0,0,0,.88.58c9,3.85,21.62,3.3,29.5-2.2.55-.91,0-1.64-.19-2.38C231.62,254,228.14,254.71,225.75,253.61Z"/><path class="cls-1" d="M275.77,300.7c.37-.74,1.83-1.1,1.83-2.2a6.73,6.73,0,0,0-6-3.12c-2.39.37-5.13.74-5.87,3.12-2.38,5.13-2.2,13,1.47,17,3.11,1.28,7.33,2,9.89-.19,1.84-2.93,3.12-6.41,1.84-9.71l-4.58-.36c-1.29,0-3.67.36-2.57,2.38-.73,2.56,2.2.92,3.11,2,.37,1.29-1.09,1.84-1.64,2.39a3.15,3.15,0,0,1-4-1.84c-.73-2.75-.91-7,.74-9.16A6.08,6.08,0,0,1,275.77,300.7Z"/><path class="cls-1" d="M332.57,315.72l.18-19.79c-.55-.73-1.47-.18-2-.55-2,3.67-4.21,7.52-7.32,9.9-3.3-2.75-5.32-6.23-8.25-9.35a1.08,1.08,0,0,0-1.46,0,107.2,107.2,0,0,0,.55,20.34c1.28-.18,2.74.55,3.84-.55l.19-6.05.73-.73,3.66,6.05c2.57-1.29,2.2-5.5,4.95-6.05.55,2.57.37,4.76.92,7.33C329.82,316.09,331.47,316.82,332.57,315.72Z"/><path class="cls-1" d="M252,297a4.09,4.09,0,0,0-3.29,0c.18,6.05.18,13.38.73,19.06.91-.37,2,.55,2.93-.37.55-2.93.55-6.05.91-8.79.37-.37.74-.37.92.18,1.28,3.11,4,5.86,5.86,8.61h2.39l.18-18.5a6,6,0,0,0-4-.55c-.73,2,.18,5.12-.73,7.51A26,26,0,0,1,252,297Z"/><path class="cls-1" d="M112.71,314.07c-1.28-2.56-3.66-1.65-5.31-.55-.37,2.2,2.56,2.75,4,3.85a8.33,8.33,0,0,0,7.69-1.28,9.28,9.28,0,0,0,1.29-6.6c-1.65-4.58-7.7-2.56-8.25-7.15.55-2,3.12-1.83,4.58-1.64a5.89,5.89,0,0,0,1.47-2.38,7.59,7.59,0,0,0-9.9.91c-1.28,1.1-1.28,3.11-1.28,4.58.73,5.31,8.43,3.3,9,9C115.46,314.25,114,314.44,112.71,314.07Z"/><path class="cls-1" d="M201.2,300.7a4.29,4.29,0,0,0,0-3.67l-10.44-.36-.18.36c0,6.05-.37,13.19,0,19.79h9.34c.73-.55,2-1.28,1.65-2.57-1.65-1.83-4.21-1.1-6.41-1.28-1.29-.55-.74-1.83-.74-2.56.74-2.75,5.5.36,5.5-2.75,1.1-4.58-3.85-.73-5.13-3.12-.18-.91-.73-2.75.37-3.84Z"/><path class="cls-1" d="M245.54,313.7l.55-14.47-.37-2.2c-1.46-.36-3.29-.36-4.21.37l.18,13.56-.73,1.28c-1.47.55-3.85.55-4.58-1.1L236,299.05c1.1-3.12-2.74-1.65-4-2l-.18,16.67,1.47,2c2.56,1.65,6.22,1.65,9.16,1.1A5.25,5.25,0,0,0,245.54,313.7Z"/><path class="cls-1" d="M184.71,316.82c3.85-1.28,3.3-5.31,3.85-8.43.18-3.85-4.4-2-7-2.2-1.65-.36-.73,1.65-.92,2.75a3.85,3.85,0,0,0,2.57.55c.73.18.91.92.91,1.65a2.44,2.44,0,0,1-2.85,1.93L181,313c-1.47-.55-2.2-2.2-2.75-3.85-.18-2.56,0-5.31,1.83-7.33a6.63,6.63,0,0,1,6-.73,2.58,2.58,0,0,0,.73-2.56c-1.46-2.75-5.49-1.1-8.06-1.1a8.79,8.79,0,0,0-4.58,7c-.55,4,.18,8.61,3.48,11.36C179.58,317.55,182.33,317,184.71,316.82Z"/><path class="cls-1" d="M149.54,298.5l-.19-1.28c-3.29,0-7.87-.19-11.17.18v19.42a33.23,33.23,0,0,0,10.44,0v-2.57c-1.83-1.1-4.4.55-6.23-.73a5.16,5.16,0,0,1,.37-3.66c2-.19,5.86.36,4.58-3.48-.37-2-2.57-.55-3.85-.74-2-.55-.73-2.74-1.1-4.39C144.59,299.23,149,302.53,149.54,298.5Z"/><path class="cls-1" d="M131.77,316.82l1.28-4.76c1.28-4.95,2.75-10.08,3.84-14.66-7-1.65-5.12,6.41-7.87,9.53-3.67-2.39-1.83-11.73-8.61-9.16l6.23,19.05A24.43,24.43,0,0,0,131.77,316.82Z"/><path class="cls-1" d="M168.41,297.77v17.77l.18,1.28c1.28-.18,2.93.73,3.85,0,0-5.86-.18-12.28,0-18.32C172.26,297,169.69,297.22,168.41,297.77Z"/><path class="cls-1" d="M216.23,307.84c-1.47-2.75-6.78-2.56-5.13-6.23,1.1-.91,2.38,0,3.29.37a3.37,3.37,0,0,0,2.39-2.75c-2.75-2.2-7.7-2.75-10.45,0-1.28,1.1-1.28,2.56-1.28,3.85-.18,4.76,5.31,3.85,7.15,7.33a3,3,0,0,1-1.1,3.11c-2,1.28-2.94-1.28-4.58-1.46-.74.91-2,1.09-1.65,2.38.73,2.38,2.93,2.38,4.76,2.93a7,7,0,0,0,5.68-1.83C216.78,313.52,217.51,310.22,216.23,307.84Z"/><path class="cls-1" d="M306.55,316.09A7.37,7.37,0,0,0,311,313c1.28-5.13,2-11.91-1.29-16.3-2.56-2.75-8.61-2.57-10.62.73-1.83,4.39-1.83,10.44-.92,14.84C299.77,315.72,303.25,316.27,306.55,316.09Zm-4-7.7c.18-2.56-1.1-6.6,1.83-8.43,1.47-.36,2.57,1.1,2.93,2.38.37,2.75.92,6.78-1.64,8.62-1.87.55-2.6-1.29-3.15-2.57Z"/><path class="cls-1" d="M292.26,298c-2.93-2-7-2.2-10.81-2a125.57,125.57,0,0,0,0,20.34c4.76-.92,12.64,1.83,13.74-5.31C295.37,306.19,296.47,301.61,292.26,298Zm-2.38,12.82c-1.1.92-2.38,2-3.85,1.29a66.33,66.33,0,0,1-.37-10.45c1.1-1.65,3.85-.91,4.4.92,1.1,2.51,1.28,5.81-.18,8.19Z"/><path class="cls-1" d="M161.08,316.82a16.48,16.48,0,0,0,4.21,0,4.42,4.42,0,0,0-1.28-2.57c-.73-2-3.3-5.13,0-6.59a6.89,6.89,0,0,0,0-7.88l-2-2c-2.75-.55-6.6-1.1-9.17-.37,0,6.78,0,13,.55,19.42l2.75.18c1.65-1.28-.18-4.58,1.65-5.49Zm-4-10.63c-.37-1.28-.92-3.85.36-4.94,1.1,0,2.39.54,2.57,1.65a2.23,2.23,0,0,1-.87,3,2.35,2.35,0,0,1-1,.27Z"/><path class="cls-1" d="M338.06,304.36c-.91.18-1.65,1.28-2.2,2.2a4.75,4.75,0,0,0,1.47,4.95,4.21,4.21,0,0,0,5.13-1.65,3,3,0,0,0,.18-3.48C341.91,304.54,340.26,303.81,338.06,304.36Z"/><path class="cls-1" d="M225.94,311.14c1.28-.73,1.46-2.56,1.28-4a5.66,5.66,0,0,0-3.85-2.57,5.11,5.11,0,0,0-3.3,2.39,4.61,4.61,0,0,0,1.29,5.13C222.82,312.24,224.84,312.79,225.94,311.14Z"/><path class="cls-1" d="M101.54,305.64a3.74,3.74,0,0,0-2.57,4,5.42,5.42,0,0,0,2.2,3.12c1.65.36,3.85.18,4.58-1.65a2.79,2.79,0,0,0,0-3.67C105.38,304.91,103,305.83,101.54,305.64Z"/><path class="cls-1" d="M297.94,342.84l.18-18c.55-2.75-2.93-2.2-4.21-1.65,0,6.6.18,14.11.55,19.79A7.73,7.73,0,0,0,297.94,342.84Z"/><path class="cls-1" d="M287.68,342.84V328.55c.37-1.29,1.83-.74,3.11-1.1,1.1,0,.74-1.29.74-2l-.19-2.56H279.62c-2,0-.73,2.56-1.28,3.66,0,2,3.11.55,4,1.47.36,5.13.55,9.89.73,15.2C284.93,343,286.4,343.57,287.68,342.84Z"/><path class="cls-1" d="M220.26,333.31c-.19-1.47-2.2-.73-3.48-.73-1.84.18-1.47-2.2-1.29-3.49,1.1-1.64,3.85-.54,5.68-1.64a9.34,9.34,0,0,0-.55-3.85h-9.71c0,6.78,0,13.37.55,20,1.47,0,2.93.73,4,0v-5.68c1.29-.92,3.12-.92,4.58-.92Z"/><path class="cls-1" d="M184.53,339.54a6.13,6.13,0,0,1-5.68-1.1c-1.1.18-1.1,1.28-1.83,2-.92.74,0,2,.73,2.75,3.12,1.1,7.51,1.83,10.08-.36,1.46-1.65,1.65-3.3,2-5.5-.36-3.48-4.58-4.76-7.14-7a1.48,1.48,0,0,1,.11-2.1,1.44,1.44,0,0,1,.44-.28c1.65-1.29,2.2,1.46,3.66.73.55-.92,2.2-1.65,1.83-2.93-2.19-1.84-5.86-2.57-8.42-1.29-2.2.92-2.94,3.49-3.48,5.5a5.54,5.54,0,0,0,2.19,3.66c2,1.29,5.68,1.65,6.23,4.59C185.81,339,184.71,339.17,184.53,339.54Z"/><path class="cls-1" d="M156.13,343.75c2,.73,1.1-1.83,1.28-2.75,0-2.56-3.66-1.28-5.86-1.46-1.46-.55-.73-1.83-.91-3.12,1.46-1.1,3.84-.36,5.49-.73,1.28-.55.55-2.56.55-3.85-2-.73-6.59,1.83-6.41-2,1.28-2.38,5-.55,7-1.65a12.54,12.54,0,0,0,0-3.67c-3.48-1.1-7.69-.36-11.17,0-.37,6.6,0,12.83.18,19.06C149.9,343.75,152.83,344.3,156.13,343.75Z"/><path class="cls-1" d="M167.31,330c.36-.55.91-.55,1.1-.92.73,0,2.38-.54,2.75.37,1.64.92,1.64-1.65,2.38-2.75a8.9,8.9,0,0,0-7.33-2.2c-1.83.37-3.12,2.2-3.85,3.49a5.75,5.75,0,0,0,1.47,5.67c1.46,1.65,4.76,1.65,4.76,4.59-.18,1.64-2.2,1.28-3.48,1.28-1.1-.55-1.83-1.83-2.75-2.2a6.6,6.6,0,0,0-.73,4.58,7.82,7.82,0,0,0,4.21,1.83c2.75.73,5.32-.73,7.33-2.75,1.1-2.74,0-5.68-1.46-7.69C170.42,331.48,167.86,332,167.31,330Z"/><path class="cls-1" d="M301.24,343a45.48,45.48,0,0,0,7-.18c2.2-1.1,4.76-2.94,5.5-5.5,1.46-3.67,1.28-8.61-1.47-11.91-2.57-2.56-6.23-3.3-9.89-2.75-1.1,0-1.29.92-1.65,1.83C301,330.56,300.5,337.34,301.24,343Zm4-16.49c2-.55,3.11.92,4,2.2,1.65,2.56.55,5.86-.19,8.43a3.73,3.73,0,0,1-2.74,1.83c-1.29.55-1.29-1.1-1.29-1.83.06-3.47-.49-7.86.25-10.61Z"/><path class="cls-1" d="M239.13,326.53c-.92-2-3.3-2.57-5.32-3.12-3.11,0-7-.73-9.71.74-.18,6.41.37,13,.55,19.6a7.19,7.19,0,0,0,4.4-.18c.18-2-.55-5.13.37-7,2.93,1.1,3.66,4.58,5.49,7,1.1.91,2.75-.37,4.22,0,.36-2.75-2.75-4.95-3.48-7.7C239,333.86,239.86,330,239.13,326.53Zm-6.6,5c-1.28-.19-3.48.91-3.48-.92.18-1.1-.36-2.75,1.28-2.75,1.29,0,2.94-.36,3.67.92a2,2,0,0,1-1.12,2.6,2.3,2.3,0,0,1-.35.1Z"/><path class="cls-1" d="M323.41,328.73c-1.1.55-2.39,1.65-2.39,2.75-.18,1.65.37,3.66,2,4.21a4.87,4.87,0,0,0,4.21-.55,3.83,3.83,0,0,0,.92-3.85,3.73,3.73,0,0,0-4.57-2.61Z"/><path class="cls-1" d="M143.31,338.26c.36-4.22.36-9-2.57-11.73l-3.66-1.83c-2.75,0-6-.55-8.61.18-.19,6.23,0,12.28-.19,18.32,1.29,1.28,4.22.55,6.6.92C138.73,344.12,141.66,341.19,143.31,338.26Zm-4.4-1.65c-1.28,1.65-2.75,3.84-5.31,2.93-1.1-2.93-.74-6.41-.74-9.16,2-2.2,5-.92,5.87,1.46.36,1.47.73,3.48.18,4.77Z"/><path class="cls-1" d="M198.27,337.89c1.47,1.1,3.48.37,4.58-.92a4.87,4.87,0,0,0,.37-4.21c-.73-1.65-2.57-2-4.22-2a5.12,5.12,0,0,0-2.93,2.57C195.16,335.32,197,337,198.27,337.89Z"/><path class="cls-1" d="M118,338.62a4,4,0,0,0,4.58-1.65c.19-1.1.74-2.56,0-3.66a3.67,3.67,0,0,0-4.58-2,4.59,4.59,0,0,0-2.19,4C116,337,116.56,338.26,118,338.62Z"/><path class="cls-1" d="M254,343.57c2.93.18,6,.55,8.79-.37.55-2.93-.18-6.59.55-9.34,2.38,1.28,2,4.4,4,5.86,1.65-1.28,2-3.85,3.85-5.13.37,2.75.55,5.86,1.1,8.61,1.28,0,2.75.37,4,0-.18-5.49-.18-11.36,0-17.22l-.18-2.57c-5.5-2-5.5,4.4-8.25,7-4-.92-3.3-10.08-9.16-6.23l-.18,16.3-.55,1.29c-3.12-5.68-4.4-11.91-7.15-17.59-1.28,0-2.75-.55-3.48.36-2,6-4.58,12.83-6.23,19.24l4.22.37c1.1-.37.73-1.83.91-2.57.19-2,2.39-1.83,3.85-1.83C253.23,338.62,252.69,342.29,254,343.57Zm-5.31-8.43c-.56-.73-.37-2,.18-3.11a3.56,3.56,0,0,1,1.28,3.11,4.2,4.2,0,0,1-1.5,0Z"/><path class="cls-1" d="M100.94,51.17l-1.52-2.08c-1.56-2.14-3.09-2.47-5-1.09s-2.1,2.88-.5,5.07c4.75,6.53,19.76-4.39,28.61,7.78,5.66,7.78,4.4,12.36-4.93,19.15-8.69,6.32-13.73,6.79-18.74-.1l-2.55-3.5,9.53-6.93,1.9,2.61c1.56,2.14,3.09,2.46,5,1.09s2.1-2.88.51-5.08c-5.69-7.68-20.07,4-29.11-8.45C79.28,53,80.36,47.86,89.5,41.21c8.1-5.88,13.76-6.33,18.58.3l2.13,2.92Z"/><path class="cls-1" d="M144.85,12.21l10,46.05-14.28,6.43-27.83-38,11.11-5L143.39,52l.15-.07-9.65-34.81Z"/><path class="cls-1" d="M158.25,8.35l23.6-5.41,1.88,8.18L171.62,13.9l2.11,9.19,11.56-2.66,1.88,8.18-11.56,2.66,2.57,11.2,12.11-2.79,1.88,8.19-23.6,5.42Z"/><path class="cls-1" d="M221.88.18,233,0l.75,46.1L219,46.34l-10.7-32.05h-.16l.53,32.21-11.14.19L196.78.59,211.71.35l10.53,32.31h.16Z"/><path class="cls-1" d="M263.61,19.14l.53-2.53c.54-2.59-.25-3.94-2.54-4.42s-3.55.39-4.1,3C255.86,23.13,274,26.92,271,41.65c-2,9.42-6.2,11.57-17.5,9.22C243,48.68,239.26,45.26,241,36.92l.88-4.24,11.54,2.4-.66,3.16c-.54,2.59.26,3.95,2.55,4.42s3.54-.38,4.09-3c1.87-9.37-16.42-12.19-13.29-27.23C247.74,4.3,252.24,1.67,263.31,4c9.8,2,13.93,5.94,12.26,14l-.73,3.54Z"/><path class="cls-1" d="M294,37.13l.15.07,17-16.38,11.39,5L304.35,42.5V68.13l-11.39-5,.6-24.54-.15-.07L284.3,59.35l-10.79-4.72L292,12.39l10.8,4.72Z"/><path class="cls-1" d="M307,69.79,342.28,38.6l12.57,9.34L335.2,90.77l-9.78-7.26,3.75-7.35-6.54-4.86-5.82,5.81Zm21.64-4.51,4.54,3.37,11-19-.13-.1Z"/><path class="cls-1" d="M45.47,151.28l2.38,1c2.45,1,3.93.48,4.82-1.68s.27-3.55-2.23-4.59C43,142.92,35.9,160.08,22,154.35c-8.9-3.66-10.23-8.23-5.83-18.9,4.09-9.92,8.14-13,16-9.72l4,1.64-4.49,10.9-3-1.23c-2.45-1-3.92-.48-4.81,1.68s-.28,3.56,2.23,4.59c8.87,3.57,15-13.89,29.22-8,7.65,3.15,9.39,8.06,5.09,18.51-3.81,9.25-8.4,12.6-16,9.47l-3.34-1.37Z"/><path class="cls-1" d="M28.19,182.9v.16l20,12.56-2.08,12.25-20.6-13.64L.6,200.41l2.08-12.25,24-5.36v-.16l-22.4-3.79,2-11.62,45.45,7.7-2,11.62Z"/><path class="cls-1" d="M36.21,214.48c8.64-.51,11.12,4.19,11.73,14.51S46.65,244.26,38,244.77l-26.17,1.55C3.2,246.83.73,242.13.11,231.82S1.41,216.54,10,216Zm-25.4,13.31c-1.81.1-2.46,1.11-2.32,3.53s.91,3.34,2.72,3.24l26-1.55c1.8-.1,2.45-1.11,2.31-3.53s-.91-3.34-2.71-3.23Z"/><path class="cls-1" d="M5,263.34l44.61-11.6,3,11.4L16,272.63l3.13,12L11,286.77Z"/><path class="cls-1" d="M15.5,298.16l42.45-18L62.55,291,20.09,309Z"/><path class="cls-1" d="M65.28,297.75,73,310.05c5.5,8.75,6.22,14-1.11,18.62l-20.67,13c-7.32,4.6-11.76,1.66-17.25-7.08l-7.73-12.31Zm-25.66,30,1.46,2.32c1.29,2.05,2.57,2.39,5.2.74l18-11.33c2.62-1.65,2.87-3,1.58-5l-1.46-2.33Z"/><path class="cls-1" d="M53.58,361.79l32.75-32.45L97,340.06c7.27,7.34,9,12.07,3.81,17.25l-3.9,3.86c-2,1.95-5.47,3.37-9.68,0l-.09.1c3,3.89,2.7,7.31-1.47,11.45l-7.11,7c-2.52,2.5-3.07,3-3,4.12l-8.35-8.43a3.4,3.4,0,0,1,.82-1.83l11.14-11.05c1.11-1.09.69-2.61-1-4.33l-2.17-2-14.12,14ZM82,350.25l2.1,2.13c1.76,1.77,2.9,2,5.79-.85,2.71-2.69,2.89-3.78.91-5.79l-2.11-2.12Z"/><path class="cls-1" d="M108.49,364.12c4.64-7.31,9.9-6.57,18.63-1s11.64,10,7,17.28l-14,22.14c-4.63,7.31-9.9,6.57-18.63,1s-11.64-10-7-17.28Zm-4,28.39c-1,1.53-.53,2.64,1.52,3.94s3.24,1.22,4.21-.31l14-22c1-1.53.53-2.65-1.51-3.95s-3.25-1.21-4.22.32Z"/><path class="cls-1" d="M150.8,385.78l-8.18-3,2.89-7.88L172.94,385,170,392.84l-8.18-3-13,35.39-11.06-4.06Z"/><path class="cls-1" d="M185.47,395.88l-8.62-1.3,1.26-8.3,28.9,4.36-1.26,8.3-8.62-1.3-5.63,37.29-11.65-1.76Z"/><path class="cls-1" d="M232.13,403.81l-.14-2.58c-.14-2.65-1.26-3.75-3.59-3.62s-3.33,1.28-3.18,4c.44,8.06,19,7,19.81,22.06.52,9.61-3,12.77-14.55,13.41-10.72.59-15.21-1.75-15.68-10.26l-.23-4.32,11.76-.65.18,3.22c.15,2.65,1.26,3.75,3.59,3.62s3.33-1.28,3.18-4c-.6-9.53-19-7.55-19.85-22.9-.45-8.25,3.22-11.94,14.51-12.56,10-.55,15,2.15,15.44,10.34l.2,3.61Z"/><path class="cls-1" d="M250,387.88l23.46-6,2.08,8.13-12,3.07,2.33,9.14,11.5-2.94,2.07,8.14L268,410.35l4.92,19.27-11.42,2.92Z"/><path class="cls-1" d="M279.75,367.65l6.81-3.34,3.08,6.26-6.81,3.34Zm5,20.84c-3.82-7.76-.44-11.87,8.83-16.42s14.59-4.73,18.4,3l11.57,23.53c3.82,7.76.44,11.87-8.83,16.43s-14.59,4.72-18.41-3Zm7-26.75,6.81-3.34,3.08,6.26L294.85,368Zm15.12,45c.8,1.62,2,1.83,4.15.76s2.73-2.13,1.94-3.75l-11.51-23.42c-.8-1.62-2-1.83-4.16-.76s-2.73,2.13-1.93,3.75Z"/><path class="cls-1" d="M343.58,397.51l-28.89-35.93,11.76-9.46c8.05-6.48,12.93-7.75,17.55-2l3.44,4.27c1.74,2.17,2.79,5.79-1,9.64l.08.1c4.18-2.54,7.56-1.94,11.24,2.64l6.28,7.8c2.22,2.77,2.71,3.37,3.78,3.42l-9.24,7.44a3.48,3.48,0,0,1-1.74-1L347,372.18c-1-1.2-2.52-.95-4.41.57l-2.33,1.87,12.47,15.5ZM335,368.08l2.33-1.87c2-1.57,2.3-2.68-.25-5.85-2.39-3-3.46-3.27-5.66-1.5l-2.33,1.87Z"/><path class="cls-1" d="M344.3,336.29,355,322.8c5.65-7.16,10.48-8.08,15.35-4.24L373.5,321c2.74,2.17,4.57,5.47,2.19,10.78l.1.08c3.71-3.65,7.13-3.83,10.73-1l5.42,4.28c4.87,3.85,5.1,8.76-.55,15.92l-10.85,13.75Zm21.29,1.79,1.85-2.34c1.65-2.09,1.65-3.12-1.54-5.65s-4.2-2.28-5.85-.19l-1.86,2.34Zm15.61,12.33,1.7-2.16c2.1-2.66,1.9-3.44-2-6.73-4.1-3.24-4.91-3-7-.39l-1.7,2.15Z"/><path class="cls-1" d="M412.82,293.82c7.82,3.7,7.73,9,3.31,18.35s-8.47,12.78-16.29,9.08l-32.68-15.47,5-10.65L403.6,310c2.91,1.38,3.91.78,5-1.41s.86-3.34-2.06-4.72L375.09,289l5-10.65Z"/><path class="cls-1" d="M388.2,245l2.14-10.93,45.25,8.84-2.84,14.5-33.57,3.8v.16l31.62,6.18-2.14,10.93-45.24-8.85L386.25,255l33.8-3.59v-.16Z"/><path class="cls-1" d="M390.54,224.56l-.7-14.51c-.51-10.32,1.45-15.26,10.09-15.69l24.38-1.19c8.64-.43,11.07,4.3,11.58,14.62l.71,14.51Zm37.1-13.62-.14-2.74c-.12-2.42-1.07-3.34-4.16-3.19L402,206.06c-3.09.15-4,1.16-3.83,3.58l.13,2.74Z"/><path class="cls-1" d="M387.56,187.28l-6-23.47,8.14-2.07,3.06,12,9.14-2.33L399,160l8.14-2.07,2.92,11.5,11.14-2.84-3.07-12,8.14-2.07,6,23.46Z"/><path class="cls-1" d="M383.56,146.69l3.75,7.87-7.57,3.61L367.17,131.8l7.58-3.61,3.75,7.87,34-16.22,5.07,10.63Z"/><path class="cls-1" d="M141.67,481.7v-2.58c0-2.65-1-3.81-3.39-3.81s-3.39,1.09-3.39,3.81c0,8.07,18.56,8.07,18.56,23.11,0,9.63-3.71,12.6-15.25,12.6-10.74,0-15.09-2.59-15.09-11.11v-4.33h11.78v3.23c0,2.65,1.05,3.81,3.39,3.81s3.39-1.1,3.39-3.81c-.08-9.55-18.56-8.59-18.56-23.95,0-8.27,3.87-11.76,15.17-11.76,10,0,14.85,3,14.85,11.17v3.62Z"/><path class="cls-1" d="M172.52,489.64h.16l9-21.82H194.1l-10,22.6,10.25,23.5H182l-9.28-22.73h-.16v22.73H160.73v-46.1h11.79Z"/><path class="cls-1" d="M199.79,513.92l9.76-46.1h15.66l9.77,46.1H222.79l-1.37-8.13h-8.15l-1.21,8.13Zm17.59-58.5c3.63,0,6.7,2.32,6.7,5.36s-3.07,5.36-6.7,5.36-6.7-2.33-6.7-5.36,3.07-5.36,6.7-5.36Zm-2.9,42h5.65l-2.5-21.82h-.17Zm2.9-34.48a2.18,2.18,0,1,0-2.66-2.13,2.47,2.47,0,0,0,2.66,2.1Z"/><path class="cls-1" d="M267,467.82h11.14v46.1H263.37L253.2,481.7H253v32.22H241.9v-46.1h14.93l10,32.48H267Z"/><path class="cls-1" d="M286.63,467.82h24.21v8.39H298.42v9.43h11.86V494H298.42v11.5h12.42v8.39H286.63Z"/><circle class="cls-1" cx="367.25" cy="94.26" r="5.51"/><circle class="cls-1" cx="65.14" cy="94.26" r="5.51"/></g></g></g></g></svg>